<?xml version="1.0" standalone="no"?>
<!DOCTYPE svg PUBLIC "-//W3C//DTD SVG 20010904//EN" "http://www.w3.org/TR/2001/REC-SVG-20010904/DTD/svg10.dtd">
<svg version="1.0" xmlns="http://www.w3.org/2000/svg" width="500pt" height="500pt" viewBox="0 0 500 500" preserveAspectRatio="xMidYMid meet">
<g transform="translate(0.000000,500.000000) scale(0.100000,-0.100000)" fill="#4b2eb5" stroke="none">
<path d="M240 4878 c-43 -12 -97 -62 -116 -105 -12 -27 -14 -195 -14 -973 l0 -940 278 0 278 0 11 70 c34 216 225 380 443 380 219 0 405 -162 442 -384 l11 -66 278 0 279 0 0 284 0 283 67 11 c249 41 417 271 374 511 -34 191 -177 334 -365 365 l-71 12 -3 282 -2 282 -928 -1 c-576 0 -940 -5 -962 -11z"/>
<path d="M2860 4610 l0 -279 38 -6 c85 -14 99 -18 147 -42 184 -91 291 -290 256 -479 -35 -190 -200 -349 -383 -370 l-58 -7 0 -283 0 -284 284 0 283 0 6 -52 c16 -156 127 -300 277 -360 45 -19 75 -23 166 -23 108 0 112 1 187 38 135 67 222 183 248 330 l12 67 279 0 278 0 0 943 c0 908 -1 944 -19 980 -22 42 -60 76 -105 94 -23 8 -275 12 -963 12 l-933 1 0 -280z"/>
<path d="M1006 2569 c-162 -40 -297 -190 -326 -361 l-12 -68 -279 0 -279 0 0 -940 c0 -778 2 -946 14 -973 18 -41 72 -91 115 -106 24 -8 297 -11 962 -11 l929 0 0 279 0 279 -27 6 c-16 3 -46 8 -68 12 -22 3 -70 22 -106 41 -216 112 -303 374 -197 593 62 127 205 231 340 246 l58 7 0 283 0 284 -284 0 -283 0 -6 61 c-12 136 -113 271 -253 340 -57 28 -76 32 -162 35 -53 2 -114 -1 -136 -7z"/>
<path d="M2860 1856 l0 -283 -66 -11 c-192 -32 -338 -174 -376 -366 -25 -127 27 -287 124 -386 63 -64 172 -118 256 -126 l62 -7 0 -283 0 -284 933 1 c688 0 940 4 963 12 42 16 78 47 103 88 21 34 21 38 21 982 l0 947 -280 0 -280 0 0 -34 c0 -45 -32 -145 -63 -198 -53 -91 -166 -175 -272 -202 -257 -68 -510 99 -555 365 l-12 69 -279 0 -279 0 0 -284z"/>
</g>
</svg>