<svg width="115" height="80" viewBox="0 0 115 80" fill="none" xmlns="http://www.w3.org/2000/svg">
<rect x="0.5" y="0.5" width="114" height="79" rx="9.5" fill="#26A6D1"/>
<rect x="0.5" y="0.5" width="114" height="79" rx="9.5" stroke="#E8E8E8"/>
<rect x="0.5" y="0.5" width="114" height="79" rx="9.5" stroke="#EDEDED"/>
<path d="M18.2858 28L7 52.9679H20.5107L22.1856 48.987H26.0142L27.6891 52.9679H42.5606V49.9295L43.8857 52.9679H51.5784L52.9035 49.8653V52.9679H83.8322L87.593 49.0903L91.1144 52.9679L107 53L95.6786 40.5536L107 28H91.3608L87.6999 31.8059L84.2893 28H50.643L47.7538 34.4444L44.7968 28H31.3143V30.935L29.8145 28C29.8145 28 18.2858 28 18.2858 28ZM20.9001 31.5455H27.4858L34.9717 48.4763V31.5455H42.1861L47.9681 43.6848L53.2968 31.5455H60.4752V49.4616H56.1073L56.0717 35.4226L49.7037 49.4616H45.7964L39.3928 35.4226V49.4616H30.4071L28.7036 45.445H19.5001L17.8001 49.4581H12.9856L20.9001 31.5455ZM64.4714 31.5455H82.2321L87.6643 37.4115L93.2715 31.5455H98.7037L90.4501 40.5501L98.7037 49.451H93.0251L87.593 43.5168L81.9571 49.451H64.4714V31.5455ZM24.1038 34.5768L21.0716 41.7319H27.1325L24.1038 34.5768ZM68.8573 35.255V38.5256H78.5465V42.1709H68.8573V45.7415H79.7252L84.775 40.4824L79.9394 35.2519H68.8573V35.255Z" fill="white"/>
</svg>