<svg width="115" height="80" viewBox="0 0 115 80" fill="none" xmlns="http://www.w3.org/2000/svg">
<rect x="0.5" y="0.5" width="114" height="79" rx="9.5" fill="url(#paint0_linear_4431_2640)"/>
<rect x="0.5" y="0.5" width="114" height="79" rx="9.5" stroke="#E8E8E8"/>
<rect x="0.5" y="0.5" width="114" height="79" rx="9.5" stroke="#EDEDED"/>
<path d="M33.6894 35.565C32.9014 33.8708 31.3648 32.8069 29.0795 32.8069C28.3703 32.8069 27.7005 33.0039 27.0701 33.3191C26.4396 33.6344 25.888 34.1072 25.494 34.6588L25.4152 34.777V28.1576C25.4152 28.1182 25.4152 28.0788 25.3758 28.0394C25.297 28 25.2576 28 25.2182 28H21.9873C21.9479 28 21.9085 28 21.8691 28.0394C21.8297 28.0788 21.8297 28.1182 21.8297 28.1576V47.1095C21.8297 47.1489 21.8297 47.1883 21.8691 47.2277C21.9085 47.2671 21.9479 47.2671 21.9873 47.2671H25.4546C25.494 47.2671 25.5334 47.2671 25.5728 47.2277C25.6122 47.1883 25.6122 47.1489 25.6122 47.1095V39.0323C25.6122 37.4563 26.676 36.353 28.3309 36.353C30.1827 36.353 30.6162 37.8503 30.6162 39.3869V47.1095C30.6162 47.1489 30.6162 47.1883 30.6556 47.2277C30.695 47.2671 30.7344 47.2671 30.7738 47.2671H34.2411C34.2805 47.2671 34.3199 47.2671 34.3593 47.2277C34.3987 47.1883 34.3987 47.1489 34.3987 47.1095V38.9141C34.3987 38.6383 34.3987 38.3625 34.3593 38.0867C34.2805 37.2199 34.0441 36.353 33.6894 35.565Z" fill="#5A31F4"/>
<path d="M16.3136 38.3625C16.3136 38.3625 14.5406 37.9291 13.9102 37.7715C13.2403 37.6139 12.1371 37.2592 12.1371 36.3924C12.1371 35.5256 13.0433 35.2498 13.989 35.2498C14.9346 35.2498 15.959 35.4862 16.0378 36.5106C16.0378 36.55 16.0772 36.5894 16.0772 36.5894C16.1166 36.6288 16.156 36.6288 16.1954 36.6288H19.6233C19.6627 36.6288 19.6627 36.6288 19.6627 36.6288L19.7021 36.5894L19.7415 36.55C19.7415 36.55 19.7415 36.5106 19.7415 36.4712C19.5445 33.1615 16.6288 31.9795 13.9496 31.9795C10.7581 31.9795 8.43341 34.0678 8.43341 36.3924C8.43341 38.0867 8.90623 39.6627 12.6493 40.7659C13.3192 40.9629 14.186 41.1994 14.974 41.4358C15.9196 41.7116 16.4318 42.1056 16.4318 42.736C16.4318 43.4452 15.368 43.9574 14.3436 43.9574C12.8463 43.9574 11.7825 43.4058 11.7037 42.4208C11.7037 42.3814 11.6643 42.342 11.6643 42.342C11.6249 42.3026 11.5855 42.3026 11.5461 42.3026H8.1182C8.0788 42.3026 8.0788 42.3026 8.0788 42.3026C8.0788 42.3026 8.0394 42.3026 8.0394 42.342L8 42.3814V42.4208C8.1576 45.5335 11.1915 47.2277 13.989 47.2277C18.1655 47.2277 20.0567 44.8637 20.0567 42.6572C20.0961 41.6328 19.8597 39.2687 16.3136 38.3625Z" fill="#5A31F4"/>
<path d="M60.4429 32.7674C58.7092 32.7674 57.2514 33.7131 56.3057 34.8951V32.8856C56.3057 32.8462 56.3057 32.8068 56.2663 32.7674C56.2269 32.728 56.1875 32.728 56.1875 32.728H52.9173C52.8779 32.728 52.8384 32.728 52.799 32.7674C52.7596 32.8068 52.7596 32.8462 52.7596 32.8856V51.483C52.7596 51.5224 52.7596 51.5618 52.799 51.5618C52.8384 51.6012 52.8779 51.6012 52.9173 51.6012H56.3845C56.4239 51.6012 56.4634 51.6012 56.4634 51.5618C56.4634 51.5224 56.5027 51.483 56.5027 51.483V45.4152H56.5422C57.0938 46.2426 58.591 47.267 60.5611 47.267C64.2648 47.267 67.3775 44.1938 67.3775 40.0172C67.4169 36.0377 64.3436 32.7674 60.4429 32.7674ZM60.1276 43.7209C59.379 43.7209 58.6698 43.5239 58.0394 43.1299C57.409 42.7359 56.9362 42.1843 56.621 41.4751C56.3451 40.8053 56.2269 40.0566 56.3845 39.3474C56.5027 38.6382 56.8574 37.9684 57.3696 37.4168C57.8818 36.9045 58.5516 36.5105 59.2608 36.3923C59.97 36.2347 60.7187 36.3135 61.3885 36.5893C62.0583 36.8651 62.6493 37.338 63.0433 37.929C63.4373 38.52 63.6737 39.2686 63.6737 39.9778C63.6737 40.4506 63.5949 40.9235 63.3979 41.3963C63.2403 41.8297 62.9645 42.2631 62.6099 42.5783C62.2947 42.9329 61.8613 43.2087 61.4279 43.3663C61.0733 43.6027 60.6005 43.7209 60.1276 43.7209Z" fill="#5A31F4"/>
<path d="M42.4365 31.9795C39.2056 31.9795 37.5902 33.0827 36.2899 33.9495L36.2505 33.9889C36.1717 34.0283 36.1323 34.1072 36.1323 34.186C36.1323 34.2648 36.1323 34.3436 36.1717 34.4224L37.472 36.6288C37.5114 36.6682 37.5114 36.7076 37.5508 36.747C37.5902 36.7864 37.6296 36.7864 37.669 36.7864C37.7084 36.7864 37.7478 36.7864 37.8266 36.7864C37.866 36.7864 37.9054 36.747 37.9448 36.7076L38.063 36.6288C38.7328 36.0772 39.7966 35.3286 42.3971 35.1316C43.8549 35.0134 45.0764 35.4074 46.022 36.2348C47.0464 37.1804 47.6374 38.6777 47.6374 40.2537C47.6374 43.1694 45.9038 45.0213 43.1457 45.0607C40.8605 45.0607 39.3238 43.8392 39.3238 42.1056C39.3238 41.16 39.7572 40.5689 40.5847 39.9385C40.6635 39.8991 40.7029 39.8203 40.7029 39.7415C40.7029 39.6627 40.7029 39.5839 40.6635 39.5051L39.5208 37.338C39.4814 37.2986 39.4814 37.2592 39.442 37.2198C39.4026 37.1804 39.3632 37.1804 39.3238 37.141C39.2844 37.141 39.245 37.141 39.2056 37.141C39.1662 37.141 39.1268 37.1804 39.0874 37.1804C37.7872 37.9291 36.2111 39.3475 36.2899 42.0662C36.4081 45.4941 39.245 48.1339 42.9487 48.2127H43.1457H43.3821C47.795 48.0551 50.9865 44.7849 50.9865 40.3719C50.9077 36.353 47.9527 31.9795 42.4365 31.9795Z" fill="#5A31F4"/>
<path d="M81.1285 34.0677H78.922C78.8826 34.0677 78.8038 34.1072 78.7644 34.1072C78.725 34.1466 78.725 34.186 78.725 34.2648V38.9141C78.725 38.9535 78.7644 39.0323 78.7644 39.0323C78.8038 39.0717 78.8432 39.0717 78.922 39.0717H81.1285C82.4681 39.0717 83.4532 38.0079 83.4532 36.55C83.4532 35.1316 82.4681 34.0677 81.1285 34.0677Z" fill="#5A31F4"/>
<path d="M87.9053 42.2634C87.9053 42.9332 88.457 43.3272 89.4814 43.3272C90.821 43.3272 91.609 42.618 91.609 41.3177V40.9631L89.5996 41.0813C88.5358 41.0813 87.9053 41.5148 87.9053 42.2634Z" fill="#5A31F4"/>
<path d="M104.296 28.0394H74.5878C74.115 28.0394 73.6028 28.1182 73.1694 28.3152C72.7359 28.5122 72.3025 28.788 71.9479 29.1033C71.5933 29.4579 71.3175 29.8519 71.1599 30.3247C70.9629 30.7581 70.8841 31.2703 70.8841 31.7431V48.0158C70.8841 49.0008 71.2781 49.9464 71.9873 50.6557C72.6965 51.3649 73.6422 51.7589 74.6272 51.7589H104.296C104.769 51.7589 105.281 51.6801 105.715 51.4831C106.148 51.2861 106.582 51.0103 106.936 50.6951C107.291 50.3405 107.567 49.9464 107.724 49.4736C107.921 49.0402 108 48.528 108 48.0552V31.7431C108 31.2703 107.921 30.7581 107.724 30.3247C107.527 29.8913 107.251 29.4579 106.936 29.1033C106.582 28.7486 106.187 28.4728 105.715 28.3152C105.242 28.1576 104.769 28.0394 104.296 28.0394ZM81.2466 40.9236H78.9219C78.8825 40.9236 78.8037 40.963 78.7643 40.963C78.7249 41.0024 78.7249 41.0418 78.7249 41.1206V44.4303C78.7249 44.4697 78.6855 44.5485 78.6855 44.5879C78.6461 44.6273 78.6067 44.6273 78.5279 44.6273H76.8731C76.8337 44.6273 76.7549 44.5879 76.7155 44.5879C76.6761 44.5485 76.6761 44.5091 76.6761 44.4303V32.4524C76.6761 32.413 76.7155 32.3341 76.7155 32.2947C76.7549 32.2553 76.7943 32.2553 76.8731 32.2553H81.2466C83.7289 32.2553 85.5019 34.0678 85.5019 36.5895C85.5019 39.1111 83.7289 40.9236 81.2466 40.9236ZM93.5397 44.4303C93.5397 44.4697 93.5397 44.4697 93.5397 44.5091C93.5397 44.5485 93.5003 44.5485 93.5003 44.5879C93.5003 44.5879 93.4609 44.6273 93.4215 44.6273C93.3821 44.6273 93.3821 44.6273 93.3427 44.6273H91.8061C91.7667 44.6273 91.7667 44.6273 91.7273 44.6273C91.6879 44.6273 91.6879 44.5879 91.6485 44.5879C91.6485 44.5879 91.6091 44.5485 91.6091 44.5091C91.6091 44.4697 91.6091 44.4697 91.6091 44.4303V44.0757C91.6091 44.0363 91.6091 43.9969 91.5697 43.9969C91.5697 43.9575 91.5303 43.9575 91.4909 43.9575C91.4515 43.9575 91.4121 43.9575 91.4121 43.9575C91.3727 43.9575 91.3727 43.9969 91.3333 43.9969C90.8605 44.5091 90.1118 44.8637 88.9298 44.8637C87.1568 44.8637 85.9747 43.9575 85.9747 42.342C85.9747 41.948 86.0535 41.554 86.2111 41.1994C86.3687 40.8448 86.6445 40.5296 86.9597 40.3326C87.5902 39.8598 88.5752 39.6234 90.0724 39.5446L91.6485 39.5052V39.0323C91.6485 38.1261 91.0181 37.7321 90.033 37.7321C89.048 37.7321 88.4176 38.0867 88.26 38.6383C88.26 38.6777 88.2206 38.7171 88.1812 38.7565C88.1418 38.7959 88.1024 38.7959 88.063 38.7959H86.5263C86.4869 38.7959 86.4869 38.7959 86.4475 38.7959C86.4081 38.7959 86.4081 38.7565 86.3687 38.7565C86.3687 38.7171 86.3293 38.7171 86.3293 38.6777C86.3293 38.6383 86.3293 38.6383 86.3293 38.5989C86.5657 37.2199 87.669 36.1955 90.0724 36.1955C92.6335 36.1955 93.5397 37.3775 93.5397 39.6628V44.4303ZM103.232 36.6683L99.7651 45.8881C98.9771 48.0158 97.598 48.5674 96.1008 48.5674C95.825 48.5674 95.5492 48.528 95.2734 48.4492C95.234 48.4492 95.1946 48.4098 95.1552 48.3704C95.1158 48.331 95.1158 48.2916 95.1158 48.2522V46.8338C95.1158 46.7944 95.1158 46.7944 95.1158 46.755C95.1158 46.7156 95.1552 46.7156 95.1552 46.6762C95.1946 46.6762 95.1946 46.6368 95.234 46.6368C95.2734 46.6368 95.2734 46.6368 95.3128 46.6368C95.5492 46.6762 95.7856 46.7156 96.022 46.7156C96.4554 46.755 96.8494 46.5973 97.204 46.3609C97.5586 46.1245 97.795 45.7699 97.9132 45.3759L98.0315 45.0607C98.0315 45.0213 98.0315 44.9819 98.0315 44.9425L94.8006 36.6683C94.8006 36.6289 94.8006 36.5895 94.8006 36.5895C94.8006 36.5501 94.8006 36.5107 94.84 36.5107C94.84 36.4713 94.8794 36.4713 94.9188 36.4319C94.9582 36.4319 94.9582 36.3925 94.9976 36.3925H96.5736C96.613 36.3925 96.6524 36.3925 96.6918 36.4319C96.7312 36.4713 96.7312 36.4713 96.7706 36.5107L98.9771 42.3814C98.9771 42.4208 99.0165 42.4602 99.0559 42.4602C99.0953 42.4996 99.1347 42.4996 99.1741 42.4996C99.2135 42.4996 99.2529 42.4996 99.2923 42.4602C99.3317 42.4208 99.3711 42.4208 99.3711 42.3814L101.262 36.5501C101.262 36.5107 101.302 36.4713 101.341 36.4319C101.381 36.3925 101.42 36.3925 101.459 36.3925H103.075C103.114 36.3925 103.154 36.3925 103.154 36.4319C103.193 36.4319 103.193 36.4713 103.232 36.5107C103.232 36.5501 103.272 36.5501 103.272 36.5895C103.232 36.5895 103.232 36.6289 103.232 36.6683Z" fill="#5A31F4"/>
<defs>
<linearGradient id="paint0_linear_4431_2640" x1="57" y1="5" x2="57" y2="80" gradientUnits="userSpaceOnUse">
<stop stop-color="#F5F5F5"/>
<stop offset="1" stop-color="white"/>
</linearGradient>
</defs>
</svg>